<svg width="18" height="18" viewBox="0 0 18 18" fill="none" xmlns="http://www.w3.org/2000/svg">
<path d="M8.99935 0.614014C4.39935 0.614014 0.666016 4.37185 0.666016 9.00205C0.666016 13.6322 4.39935 17.3901 8.99935 17.3901C13.5993 17.3901 17.3327 13.6322 17.3327 9.00205C17.3327 4.37185 13.5993 0.614014 8.99935 0.614014ZM8.99935 3.96923C10.6077 3.96923 11.916 5.28615 11.916 6.90504C11.916 8.52393 10.6077 9.84085 8.99935 9.84085C7.39102 9.84085 6.08268 8.52393 6.08268 6.90504C6.08268 5.28615 7.39102 3.96923 8.99935 3.96923ZM8.99935 15.7125C7.30768 15.7125 5.30768 15.0247 3.88268 13.2967C5.34235 12.144 7.14403 11.5175 8.99935 11.5175C10.8547 11.5175 12.6563 12.144 14.116 13.2967C12.691 15.0247 10.691 15.7125 8.99935 15.7125Z" fill="#C2C1C0"/>
</svg>
