<svg width="12" height="16" viewBox="0 0 12 16" fill="none" xmlns="http://www.w3.org/2000/svg">
<path d="M0.999832 15.1641C0.856675 15.1637 0.716045 15.1261 0.591499 15.0551C0.462777 14.9823 0.355592 14.8763 0.280916 14.7481C0.206239 14.6199 0.166753 14.474 0.166499 14.3253V2.02009C0.155234 1.51707 0.341355 1.02985 0.684527 0.664012C1.0277 0.298176 1.50027 0.0832002 1.99983 0.0656738H9.99983C10.4994 0.0832002 10.972 0.298176 11.3151 0.664012C11.6583 1.02985 11.8444 1.51707 11.8332 2.02009V14.3253C11.8323 14.4717 11.7934 14.6153 11.7203 14.7419C11.6472 14.8684 11.5424 14.9735 11.4165 15.0467C11.2898 15.1203 11.1461 15.1591 10.9998 15.1591C10.8536 15.1591 10.7098 15.1203 10.5832 15.0467L5.85817 12.3541L1.4165 15.0383C1.29113 15.1167 1.14734 15.1601 0.999832 15.1641Z" fill="#C2C1C0"/>
</svg>
