<svg width="17" height="17" viewBox="0 0 17 17" fill="none" xmlns="http://www.w3.org/2000/svg">
<path fill-rule="evenodd" clip-rule="evenodd" d="M17 8.5C17 10.7543 16.1045 12.9163 14.5104 14.5104C12.9163 16.1045 10.7543 17 8.5 17C6.24566 17 4.08365 16.1045 2.48959 14.5104C0.895533 12.9163 0 10.7543 0 8.5C0 6.24566 0.895533 4.08365 2.48959 2.48959C4.08365 0.895533 6.24566 0 8.5 0C10.7543 0 12.9163 0.895533 14.5104 2.48959C16.1045 4.08365 17 6.24566 17 8.5ZM6.25 7.75C6.25 7.55109 6.32902 7.36032 6.46967 7.21967C6.61032 7.07902 6.80109 7 7 7H7.253C7.51515 6.99989 7.77398 7.05867 8.01037 7.17201C8.24675 7.28536 8.45465 7.45036 8.61871 7.65483C8.78277 7.8593 8.89879 8.09802 8.95821 8.35335C9.01763 8.60868 9.01892 8.8741 8.962 9.13L8.502 11.196C8.4939 11.2326 8.49414 11.2706 8.5027 11.3071C8.51126 11.3436 8.52792 11.3777 8.55144 11.4069C8.57497 11.4361 8.60476 11.4596 8.63861 11.4757C8.67246 11.4918 8.70951 11.5001 8.747 11.5H9C9.19891 11.5 9.38968 11.579 9.53033 11.7197C9.67098 11.8603 9.75 12.0511 9.75 12.25C9.75 12.4489 9.67098 12.6397 9.53033 12.7803C9.38968 12.921 9.19891 13 9 13H8.747C8.48485 13.0001 8.22602 12.9413 7.98963 12.828C7.75325 12.7146 7.54535 12.5496 7.38129 12.3452C7.21723 12.1407 7.10121 11.902 7.04179 11.6466C6.98237 11.3913 6.98108 11.1259 7.038 10.87L7.498 8.804C7.5061 8.76739 7.50586 8.72943 7.4973 8.69293C7.48874 8.65643 7.47208 8.62232 7.44856 8.59312C7.42503 8.56393 7.39524 8.5404 7.36139 8.52428C7.32754 8.50816 7.29049 8.49986 7.253 8.5H7C6.80109 8.5 6.61032 8.42098 6.46967 8.28033C6.32902 8.13968 6.25 7.94891 6.25 7.75ZM8 5C8.26522 5 8.51957 4.89464 8.70711 4.70711C8.89464 4.51957 9 4.26522 9 4C9 3.73478 8.89464 3.48043 8.70711 3.29289C8.51957 3.10536 8.26522 3 8 3C7.73478 3 7.48043 3.10536 7.29289 3.29289C7.10536 3.48043 7 3.73478 7 4C7 4.26522 7.10536 4.51957 7.29289 4.70711C7.48043 4.89464 7.73478 5 8 5Z" fill="#C2C1C0"/>
</svg>
