<svg width="20" height="16" viewBox="0 0 20 16" fill="none" xmlns="http://www.w3.org/2000/svg">
<path d="M17.5 4.66667V3.83333L15 5.5L12.5 3.83333V4.66667L14.7667 6.18333C14.8347 6.22814 14.9144 6.25202 14.9958 6.25202C15.0773 6.25202 15.157 6.22814 15.225 6.18333L17.5 4.66667ZM18.3333 0.5H1.66667C0.75 0.5 0 1.25 0 2.16667V13.8333C0 14.75 0.75 15.5 1.66667 15.5H18.3333C19.25 15.5 19.9917 14.75 19.9917 13.8333L20 2.16667C20 1.25 19.25 0.5 18.3333 0.5ZM6.66667 3C8.05 3 9.16667 4.11667 9.16667 5.5C9.16667 6.88333 8.05 8 6.66667 8C5.28333 8 4.16667 6.88333 4.16667 5.5C4.16667 4.11667 5.28333 3 6.66667 3ZM11.6667 13H1.66667V12.1667C1.66667 10.5 5 9.58333 6.66667 9.58333C8.33333 9.58333 11.6667 10.5 11.6667 12.1667V13ZM17.9167 8H12.0833C11.85 8 11.6667 7.81667 11.6667 7.58333V3.41667C11.6667 3.18333 11.85 3 12.0833 3H17.9167C18.15 3 18.3333 3.18333 18.3333 3.41667V7.58333C18.3333 7.81667 18.15 8 17.9167 8Z" fill="#C2C1C0"/>
</svg>
