<svg width="18" height="17" viewBox="0 0 18 17" fill="none" xmlns="http://www.w3.org/2000/svg">
<path d="M15.8329 0.666748H6.94401V3.44453H9.16623V4.55564H1.94401C0.999566 4.55564 0.277344 5.27786 0.277344 6.2223V12.3334C0.277344 13.2779 0.999566 14.0001 1.94401 14.0001H2.49957V16.8334L5.99957 14.0001H9.72179V10.1112H15.8329C16.7773 10.1112 17.4996 9.38897 17.4996 8.44453V2.33341C17.4996 1.38897 16.7773 0.666748 15.8329 0.666748ZM6.27734 11.7223L5.99957 10.8334H4.27734L3.94401 11.7223H2.61068L4.44401 6.77786H5.77734L7.61068 11.7223H6.27734ZM14.7218 7.33342V8.44453C13.9996 8.44453 13.2218 8.2223 12.5551 7.88897C11.8885 8.2223 11.1107 8.38897 10.3329 8.44453L10.2773 7.33342C10.6662 7.33342 11.0551 7.27786 11.444 7.16675C10.944 6.66675 10.6107 6.05564 10.444 5.38897H11.6107C11.7773 5.88897 12.1107 6.27786 12.4996 6.61119C13.1107 6.11119 13.4996 5.38897 13.5551 4.55564H10.2218V3.44453H11.8885V2.33341H12.9996V3.44453H14.8329L14.8885 4.00008C14.944 5.16675 14.4996 6.33342 13.6662 7.16675C14.0551 7.27786 14.3885 7.33342 14.7218 7.33342Z" fill="#C2C1C0"/>
</svg>
