<svg width="20" height="21" viewBox="0 0 20 21" fill="none" xmlns="http://www.w3.org/2000/svg">
<path d="M9.99935 13.9088C10.4596 13.9088 10.8327 13.5333 10.8327 13.07C10.8327 12.6067 10.4596 12.2312 9.99935 12.2312C9.53911 12.2312 9.16602 12.6067 9.16602 13.07C9.16602 13.5333 9.53911 13.9088 9.99935 13.9088Z" fill="#C2C1C0"/>
<path d="M14.1673 7.19837H13.334V5.61303C13.334 4.72317 12.9828 3.86976 12.3577 3.24053C11.7326 2.61131 10.8847 2.25781 10.0007 2.25781C9.1166 2.25781 8.26875 2.61131 7.64363 3.24053C7.01851 3.86976 6.66732 4.72317 6.66732 5.61303V7.19837H5.83398C5.17094 7.19837 4.53506 7.46349 4.06622 7.93541C3.59738 8.40732 3.33398 9.04738 3.33398 9.71478V16.4252C3.33398 17.0926 3.59738 17.7327 4.06622 18.2046C4.53506 18.6765 5.17094 18.9416 5.83398 18.9416H14.1673C14.8304 18.9416 15.4662 18.6765 15.9351 18.2046C16.4039 17.7327 16.6673 17.0926 16.6673 16.4252V9.71478C16.6673 9.04738 16.4039 8.40732 15.9351 7.93541C15.4662 7.46349 14.8304 7.19837 14.1673 7.19837ZM8.33398 5.61303C8.32277 5.15613 8.49186 4.71337 8.80422 4.38166C9.11658 4.04996 9.54678 3.85632 10.0007 3.84315C10.4545 3.85632 10.8847 4.04996 11.1971 4.38166C11.5094 4.71337 11.6785 5.15613 11.6673 5.61303V7.19837H8.33398V5.61303ZM10.0007 15.5864C9.5062 15.5864 9.02285 15.4388 8.61173 15.1623C8.2006 14.8858 7.88017 14.4928 7.69095 14.033C7.50173 13.5732 7.45222 13.0672 7.54869 12.5791C7.64515 12.0909 7.88325 11.6425 8.23288 11.2906C8.58251 10.9387 9.02797 10.699 9.51293 10.6019C9.99788 10.5048 10.5005 10.5547 10.9574 10.7451C11.4142 10.9356 11.8046 11.2581 12.0793 11.6719C12.354 12.0858 12.5007 12.5723 12.5007 13.07C12.5007 13.7374 12.2373 14.3774 11.7684 14.8494C11.2996 15.3213 10.6637 15.5864 10.0007 15.5864Z" fill="#C2C1C0"/>
</svg>
