<svg width="16" height="19" viewBox="0 0 16 19" fill="none" xmlns="http://www.w3.org/2000/svg">
<path d="M14.697 12.7001C14.6322 12.6214 14.5685 12.5428 14.506 12.4669C13.6467 11.4206 13.1267 10.7892 13.1267 7.82727C13.1267 6.29383 12.7623 5.03563 12.0439 4.09197C11.5142 3.39485 10.7982 2.86601 9.85447 2.47518C9.84233 2.46838 9.83148 2.45946 9.82244 2.44884C9.48299 1.30466 8.55408 0.53833 7.50642 0.53833C6.45877 0.53833 5.53025 1.30466 5.1908 2.44766C5.18174 2.45789 5.17104 2.46653 5.15916 2.47321C2.95681 3.38581 1.8865 5.13668 1.8865 7.82609C1.8865 10.7892 1.36736 11.4206 0.507204 12.4657C0.444705 12.5416 0.381033 12.6187 0.316189 12.6989C0.148689 12.9022 0.0425644 13.1496 0.0103739 13.4117C-0.0218166 13.6739 0.0212747 13.9398 0.134548 14.1781C0.375564 14.6892 0.889236 15.0065 1.47556 15.0065H13.5416C14.1252 15.0065 14.6353 14.6896 14.8771 14.1808C14.9909 13.9425 15.0344 13.6763 15.0025 13.4139C14.9706 13.1515 14.8646 12.9037 14.697 12.7001ZM7.50642 18.1532C8.07089 18.1528 8.62471 17.9985 9.10914 17.7069C9.59358 17.4152 9.99056 16.9971 10.258 16.4967C10.2706 16.4727 10.2768 16.4459 10.276 16.4188C10.2753 16.3916 10.2676 16.3652 10.2537 16.342C10.2397 16.3187 10.2201 16.2995 10.1966 16.2862C10.1732 16.2729 10.1467 16.2659 10.1197 16.2659H4.89392C4.86694 16.2658 4.84039 16.2727 4.81687 16.286C4.79334 16.2993 4.77364 16.3185 4.75967 16.3418C4.74571 16.365 4.73796 16.3915 4.73719 16.4187C4.73641 16.4458 4.74264 16.4727 4.75525 16.4967C5.02265 16.997 5.41957 17.4151 5.90393 17.7068C6.38828 17.9984 6.94202 18.1527 7.50642 18.1532Z" fill="#C2C1C0"/>
</svg>
