<svg width="16" height="17" viewBox="0 0 16 17" fill="none" xmlns="http://www.w3.org/2000/svg">
<path d="M8 1.73543C9.72391 1.73543 11.3772 2.42475 12.5962 3.65174C13.8152 4.87872 14.5 6.54288 14.5 8.2781C14.5 10.0133 13.8152 11.6775 12.5962 12.9045C11.3772 14.1315 9.72391 14.8208 8 14.8208V1.73543ZM8 0.225586C5.87827 0.225586 3.84344 1.07397 2.34315 2.58411C0.842855 4.09425 0 6.14244 0 8.2781C0 10.4138 0.842855 12.462 2.34315 13.9721C3.84344 15.4822 5.87827 16.3306 8 16.3306C10.1217 16.3306 12.1566 15.4822 13.6569 13.9721C15.1571 12.462 16 10.4138 16 8.2781C16 6.14244 15.1571 4.09425 13.6569 2.58411C12.1566 1.07397 10.1217 0.225586 8 0.225586Z" fill="#C2C1C0"/>
</svg>
