<svg width="20" height="20" viewBox="0 0 20 20" fill="none" xmlns="http://www.w3.org/2000/svg">
<path fill-rule="evenodd" clip-rule="evenodd" d="M10.0007 0.833252C4.93815 0.833252 0.833984 4.93742 0.833984 9.99992C0.833984 15.0624 4.93815 19.1666 10.0007 19.1666C15.0632 19.1666 19.1673 15.0624 19.1673 9.99992C19.1673 4.93742 15.0632 0.833252 10.0007 0.833252ZM9.07732 7.44575C9.26898 7.06825 9.41065 6.88909 9.52815 6.79575C9.61648 6.72575 9.73648 6.66659 10.0007 6.66659C10.5215 6.66659 10.834 7.05825 10.834 7.48159C10.834 7.71325 10.789 7.82825 10.6657 7.97492C10.4932 8.17992 10.174 8.42909 9.54232 8.84659L9.16732 9.09325V10.8333C9.16732 11.0543 9.25512 11.2662 9.4114 11.4225C9.56768 11.5788 9.77964 11.6666 10.0007 11.6666C10.2217 11.6666 10.4336 11.5788 10.5899 11.4225C10.7462 11.2662 10.834 11.0543 10.834 10.8333V9.98575C11.2857 9.67409 11.6648 9.37575 11.9398 9.04909C12.3373 8.57742 12.5007 8.07409 12.5007 7.48159C12.5007 6.25659 11.5565 4.99992 10.0007 4.99992C9.43065 4.99992 8.92649 5.14659 8.49399 5.48909C8.09065 5.80825 7.81565 6.24742 7.59065 6.69325C7.53837 6.79114 7.50616 6.89849 7.49593 7.00899C7.48569 7.1195 7.49763 7.23093 7.53104 7.33676C7.56446 7.44259 7.61867 7.54068 7.69051 7.62527C7.76234 7.70986 7.85035 7.77925 7.94937 7.82937C8.04838 7.87949 8.15641 7.90932 8.26711 7.91713C8.37782 7.92493 8.48896 7.91054 8.59403 7.87481C8.6991 7.83908 8.79597 7.78272 8.87896 7.70904C8.96195 7.63536 9.02939 7.54585 9.07732 7.44575ZM10.834 13.7499C10.834 13.5289 10.7462 13.3169 10.5899 13.1607C10.4336 13.0044 10.2217 12.9166 10.0007 12.9166C9.77964 12.9166 9.56768 13.0044 9.4114 13.1607C9.25512 13.3169 9.16732 13.5289 9.16732 13.7499V14.1666C9.16732 14.3876 9.25512 14.5996 9.4114 14.7558C9.56768 14.9121 9.77964 14.9999 10.0007 14.9999C10.2217 14.9999 10.4336 14.9121 10.5899 14.7558C10.7462 14.5996 10.834 14.3876 10.834 14.1666V13.7499Z" fill="#C2C1C0"/>
</svg>
