<svg width="16" height="16" viewBox="0 0 16 16" fill="none" xmlns="http://www.w3.org/2000/svg">
<path d="M3.41667 0.280029C2.64312 0.280029 1.90125 0.589337 1.35427 1.13991C0.807291 1.69048 0.5 2.43722 0.5 3.21584V4.77937C0.5 5.00184 0.587797 5.21519 0.744078 5.3725C0.900358 5.5298 1.11232 5.61818 1.33333 5.61818C1.55435 5.61818 1.76631 5.5298 1.92259 5.3725C2.07887 5.21519 2.16667 5.00184 2.16667 4.77937V3.21584C2.16667 2.88215 2.29836 2.56212 2.53278 2.32616C2.7672 2.0902 3.08515 1.95764 3.41667 1.95764H4.97C5.19101 1.95764 5.40298 1.86926 5.55926 1.71196C5.71554 1.55465 5.80333 1.3413 5.80333 1.11883C5.80333 0.896368 5.71554 0.683015 5.55926 0.525709C5.40298 0.368403 5.19101 0.280029 4.97 0.280029H3.41667ZM11.03 0.280029C10.809 0.280029 10.597 0.368403 10.4407 0.525709C10.2845 0.683015 10.1967 0.896368 10.1967 1.11883C10.1967 1.3413 10.2845 1.55465 10.4407 1.71196C10.597 1.86926 10.809 1.95764 11.03 1.95764H12.5833C12.9149 1.95764 13.2328 2.0902 13.4672 2.32616C13.7016 2.56212 13.8333 2.88215 13.8333 3.21584V4.77937C13.8333 5.00184 13.9211 5.21519 14.0774 5.3725C14.2337 5.5298 14.4457 5.61818 14.6667 5.61818C14.8877 5.61818 15.0996 5.5298 15.2559 5.3725C15.4122 5.21519 15.5 5.00184 15.5 4.77937V3.21584C15.5 2.43722 15.1927 1.69048 14.6457 1.13991C14.0987 0.589337 13.3569 0.280029 12.5833 0.280029H11.03ZM2.16667 10.8792C2.16667 10.6567 2.07887 10.4433 1.92259 10.286C1.76631 10.1287 1.55435 10.0403 1.33333 10.0403C1.11232 10.0403 0.900358 10.1287 0.744078 10.286C0.587797 10.4433 0.5 10.6567 0.5 10.8792V12.4427C0.5 13.2213 0.807291 13.968 1.35427 14.5186C1.90125 15.0692 2.64312 15.3785 3.41667 15.3785H4.97C5.19101 15.3785 5.40298 15.2901 5.55926 15.1328C5.71554 14.9755 5.80333 14.7622 5.80333 14.5397C5.80333 14.3172 5.71554 14.1039 5.55926 13.9466C5.40298 13.7893 5.19101 13.7009 4.97 13.7009H3.41667C3.08515 13.7009 2.7672 13.5683 2.53278 13.3324C2.29836 13.0964 2.16667 12.7764 2.16667 12.4427V10.8792ZM15.5 10.8792C15.5 10.6567 15.4122 10.4433 15.2559 10.286C15.0996 10.1287 14.8877 10.0403 14.6667 10.0403C14.4457 10.0403 14.2337 10.1287 14.0774 10.286C13.9211 10.4433 13.8333 10.6567 13.8333 10.8792V12.4427C13.8333 12.7764 13.7016 13.0964 13.4672 13.3324C13.2328 13.5683 12.9149 13.7009 12.5833 13.7009H11.03C10.809 13.7009 10.597 13.7893 10.4407 13.9466C10.2845 14.1039 10.1967 14.3172 10.1967 14.5397C10.1967 14.7622 10.2845 14.9755 10.4407 15.1328C10.597 15.2901 10.809 15.3785 11.03 15.3785H12.5833C13.3569 15.3785 14.0987 15.0692 14.6457 14.5186C15.1927 13.968 15.5 13.2213 15.5 12.4427V10.8792ZM4.66667 6.99046C4.44565 6.99046 4.23369 7.07883 4.07741 7.23614C3.92113 7.39345 3.83333 7.6068 3.83333 7.82926C3.83333 8.05173 3.92113 8.26508 4.07741 8.42239C4.23369 8.57969 4.44565 8.66807 4.66667 8.66807H11.3333C11.5543 8.66807 11.7663 8.57969 11.9226 8.42239C12.0789 8.26508 12.1667 8.05173 12.1667 7.82926C12.1667 7.6068 12.0789 7.39345 11.9226 7.23614C11.7663 7.07883 11.5543 6.99046 11.3333 6.99046H4.66667Z" fill="#C2C1C0"/>
</svg>
