<svg width="56" height="56" viewBox="0 0 56 56" fill="none" xmlns="http://www.w3.org/2000/svg">
<rect width="56" height="56" rx="15" fill="#EC2758"/>
<path d="M25.668 11.6665H22.168C21.2397 11.6665 20.3495 12.0353 19.6931 12.6916C19.0367 13.348 18.668 14.2382 18.668 15.1665V40.8332C18.668 41.7614 19.0367 42.6517 19.6931 43.308C20.3495 43.9644 21.2397 44.3332 22.168 44.3332H33.8346C34.7629 44.3332 35.6531 43.9644 36.3095 43.308C36.9659 42.6517 37.3346 41.7614 37.3346 40.8332V15.1665C37.3346 14.2382 36.9659 13.348 36.3095 12.6916C35.6531 12.0353 34.7629 11.6665 33.8346 11.6665H30.3346M25.668 11.6665V13.9998H30.3346V11.6665M25.668 11.6665H30.3346M25.668 40.8332H30.3346" stroke="white" stroke-width="2.5" stroke-linecap="round" stroke-linejoin="round"/>
</svg>
