<svg width="18" height="18" viewBox="0 0 18 18" fill="none" xmlns="http://www.w3.org/2000/svg">
<path d="M16.8273 3.87464L16.4679 3.66232C16.4902 3.5484 16.5007 3.43243 16.4991 3.31631C16.5007 3.2002 16.4902 3.08423 16.4679 2.97031L16.8273 2.75799C16.8993 2.71792 16.9626 2.66376 17.0136 2.59869C17.0645 2.53363 17.102 2.45896 17.1238 2.3791C17.1456 2.29923 17.1514 2.21578 17.1407 2.13364C17.13 2.05151 17.1032 1.97235 17.0616 1.90083C16.9769 1.75677 16.8392 1.65208 16.6784 1.6094C16.5176 1.56672 16.3465 1.58949 16.2023 1.67278L15.8429 1.88511C15.6678 1.73399 15.4665 1.6167 15.2491 1.5391V1.11445C15.2491 0.947606 15.1833 0.787591 15.0661 0.669611C14.9489 0.551632 14.7899 0.485352 14.6241 0.485352C14.4584 0.485352 14.2994 0.551632 14.1822 0.669611C14.065 0.787591 13.9991 0.947606 13.9991 1.11445V1.5391C13.7818 1.6167 13.5805 1.73399 13.4054 1.88511L13.046 1.67278C12.9017 1.58949 12.7307 1.56672 12.5699 1.6094C12.409 1.65208 12.2714 1.75677 12.1866 1.90083C12.1451 1.97235 12.1182 2.05151 12.1076 2.13364C12.0969 2.21578 12.1026 2.29923 12.1245 2.3791C12.1463 2.45896 12.1838 2.53363 12.2347 2.59869C12.2856 2.66376 12.349 2.71792 12.421 2.75799L12.7804 2.97031C12.758 3.08423 12.7476 3.2002 12.7491 3.31631C12.7476 3.43243 12.758 3.5484 12.7804 3.66232L12.421 3.87464C12.3029 3.94437 12.2109 4.05118 12.159 4.17867C12.1071 4.30617 12.0982 4.44729 12.1336 4.58037C12.1691 4.71344 12.2471 4.83111 12.3554 4.91529C12.4638 4.99947 12.5966 5.04552 12.7335 5.04635C12.8436 5.04724 12.9518 5.01729 13.046 4.95985L13.4054 4.74752C13.5805 4.89863 13.7818 5.01593 13.9991 5.09353V5.51817C13.9991 5.68502 14.065 5.84504 14.1822 5.96302C14.2994 6.081 14.4584 6.14728 14.6241 6.14728C14.7899 6.14728 14.9489 6.081 15.0661 5.96302C15.1833 5.84504 15.2491 5.68502 15.2491 5.51817V5.09353C15.4665 5.01593 15.6678 4.89863 15.8429 4.74752L16.2023 4.95985C16.2964 5.01729 16.4046 5.04724 16.5148 5.04635C16.6516 5.04552 16.7845 4.99947 16.8928 4.91529C17.0012 4.83111 17.0791 4.71344 17.1146 4.58037C17.1501 4.44729 17.1412 4.30617 17.0893 4.17867C17.0374 4.05118 16.9453 3.94437 16.8273 3.87464ZM13.9991 3.31631C13.9991 3.19189 14.0358 3.07026 14.1045 2.9668C14.1731 2.86335 14.2708 2.78271 14.385 2.7351C14.4992 2.68748 14.6248 2.67503 14.7461 2.6993C14.8673 2.72357 14.9787 2.78349 15.0661 2.87147C15.1535 2.95945 15.213 3.07155 15.2371 3.19358C15.2612 3.31562 15.2489 3.44211 15.2016 3.55706C15.1543 3.67201 15.0741 3.77027 14.9714 3.83939C14.8686 3.90852 14.7477 3.94542 14.6241 3.94542C14.4584 3.94542 14.2994 3.87914 14.1822 3.76116C14.065 3.64318 13.9991 3.48316 13.9991 3.31631ZM16.3741 7.45266C16.2109 7.4724 16.0619 7.55611 15.9595 7.68565C15.8572 7.81518 15.8096 7.98011 15.8273 8.14468C15.8584 8.42142 15.8741 8.69972 15.8741 8.97824C15.8764 10.6716 15.259 12.3065 14.1398 13.5707C13.4429 12.5534 12.4612 11.7678 11.3194 11.3138C11.9318 10.8283 12.3786 10.1628 12.5978 9.40988C12.817 8.65693 12.7976 7.85395 12.5424 7.11259C12.2872 6.37124 11.8088 5.72836 11.1738 5.27337C10.5387 4.81837 9.77862 4.57387 8.99914 4.57387C8.21965 4.57387 7.45953 4.81837 6.8245 5.27337C6.18946 5.72836 5.71107 6.37124 5.45584 7.11259C5.20062 7.85395 5.18126 8.65693 5.40044 9.40988C5.61963 10.1628 6.06647 10.8283 6.67882 11.3138C5.53711 11.7678 4.55538 12.5534 3.85851 13.5707C2.97946 12.5733 2.40537 11.3416 2.20528 10.0236C2.00519 8.70556 2.18763 7.35744 2.73065 6.14133C3.27367 4.92522 4.15415 3.8929 5.26621 3.16852C6.37826 2.44414 7.67453 2.05855 8.99914 2.05811C9.21309 2.05681 9.42695 2.06731 9.63976 2.08956C9.72184 2.09679 9.80452 2.08768 9.8831 2.06274C9.96168 2.0378 10.0346 1.99753 10.0977 1.94423C10.1608 1.89092 10.2129 1.82562 10.2509 1.75206C10.289 1.6785 10.3123 1.59812 10.3194 1.51551C10.3266 1.43289 10.3176 1.34966 10.2928 1.27057C10.268 1.19148 10.228 1.11807 10.1751 1.05454C10.1221 0.991013 10.0572 0.938605 9.98415 0.900311C9.91107 0.862017 9.83121 0.838587 9.74914 0.831358C9.50695 0.807767 9.24914 0.799903 8.99914 0.799903C7.36197 0.800475 5.76316 1.29886 4.41223 2.22975C3.06129 3.16064 2.02125 4.48061 1.4284 6.01668C0.83554 7.55275 0.717527 9.23326 1.08982 10.838C1.46212 12.4427 2.30735 13.8968 3.51476 15.0098L3.61632 15.1041C5.10168 16.4265 7.01618 17.1564 8.99914 17.1564C10.9821 17.1564 12.8966 16.4265 14.3819 15.1041L14.4835 15.0098C15.3164 14.2447 15.9815 13.3131 16.4362 12.2745C16.8909 11.2359 17.1252 10.1132 17.1241 8.97824C17.1256 8.65239 17.1074 8.32674 17.0694 8.00313C17.0598 7.921 17.0341 7.84161 16.9939 7.76948C16.9537 7.69735 16.8998 7.63391 16.8352 7.58278C16.7706 7.53165 16.6966 7.49384 16.6175 7.47152C16.5384 7.44919 16.4557 7.44278 16.3741 7.45266ZM6.49914 8.34914C6.49914 7.85144 6.64576 7.36491 6.92046 6.95109C7.19517 6.53727 7.58561 6.21474 8.04243 6.02428C8.49924 5.83381 9.00191 5.78398 9.48686 5.88108C9.97181 5.97817 10.4173 6.21784 10.7669 6.56976C11.1165 6.92169 11.3546 7.37007 11.4511 7.85821C11.5476 8.34634 11.4981 8.85231 11.3088 9.31212C11.1196 9.77194 10.7992 10.1649 10.3881 10.4415C9.97694 10.718 9.49359 10.8655 8.99914 10.8655C8.33673 10.8635 7.70204 10.5977 7.23364 10.1262C6.76525 9.65475 6.5012 9.01589 6.49914 8.34914ZM4.7882 14.4436C5.24048 13.7325 5.86323 13.1474 6.5991 12.7421C7.33497 12.3368 8.16031 12.1244 8.99914 12.1244C9.83796 12.1244 10.6633 12.3368 11.3992 12.7421C12.135 13.1474 12.7578 13.7325 13.2101 14.4436C12.0061 15.386 10.5244 15.8977 8.99914 15.8977C7.47391 15.8977 5.99219 15.386 4.7882 14.4436Z" fill="#C2C1C0"/>
</svg>
