<svg width="20" height="20" viewBox="0 0 20 20" fill="none" xmlns="http://www.w3.org/2000/svg">
<path d="M16.6673 5.00008C16.6673 3.19341 13.6148 1.66675 10.0007 1.66675C6.38648 1.66675 3.33398 3.19341 3.33398 5.00008V6.66675C3.33398 8.47341 6.38648 10.0001 10.0007 10.0001C13.6148 10.0001 16.6673 8.47341 16.6673 6.66675V5.00008ZM10.0007 15.8334C6.38648 15.8334 3.33398 14.3067 3.33398 12.5001V15.0001C3.33398 16.8067 6.38648 18.3334 10.0007 18.3334C13.6148 18.3334 16.6673 16.8067 16.6673 15.0001V12.5001C16.6673 14.3067 13.6148 15.8334 10.0007 15.8334Z" fill="#C2C1C0"/>
<path d="M16.6673 8.33325C16.6673 10.1399 13.6148 11.6666 10.0007 11.6666C6.38648 11.6666 3.33398 10.1399 3.33398 8.33325V10.8333C3.33398 12.6399 6.38648 14.1666 10.0007 14.1666C13.6148 14.1666 16.6673 12.6399 16.6673 10.8333V8.33325Z" fill="#C2C1C0"/>
</svg>
