<svg width="18" height="18" viewBox="0 0 18 18" fill="none" xmlns="http://www.w3.org/2000/svg">
<path d="M8.375 0.25H9.625V3.375H8.375V0.25ZM12.555 4.5625L14.7463 2.37125L15.63 3.255L13.4387 5.44625L12.555 4.5625ZM14.625 8.375H17.75V9.625H14.625V8.375ZM12.555 13.4375L13.4387 12.5544L15.63 14.7456L14.7463 15.6294L12.555 13.4375ZM8.375 14.625H9.625V17.75H8.375V14.625ZM2.37125 14.745L4.5625 12.5538L5.44625 13.4375L3.25563 15.6288L2.37125 14.745ZM0.25 8.375H3.375V9.625H0.25V8.375ZM2.37188 3.255L3.25563 2.37125L5.44687 4.5625L4.5625 5.44625L2.37188 3.255ZM9 5.25C8.25832 5.25 7.5333 5.46993 6.91661 5.88199C6.29993 6.29404 5.81928 6.87971 5.53545 7.56494C5.25162 8.25016 5.17736 9.00416 5.32206 9.73159C5.46675 10.459 5.8239 11.1272 6.34835 11.6517C6.8728 12.1761 7.54098 12.5333 8.26841 12.6779C8.99584 12.8226 9.74984 12.7484 10.4351 12.4645C11.1203 12.1807 11.706 11.7001 12.118 11.0834C12.5301 10.4667 12.75 9.74168 12.75 9C12.75 8.00544 12.3549 7.05161 11.6517 6.34835C10.9484 5.64509 9.99456 5.25 9 5.25Z" fill="#C2C1C0"/>
</svg>
